<svg width="20" height="18" viewBox="0 0 20 18" fill="none" xmlns="http://www.w3.org/2000/svg">
<g clip-path="url(#clip0_45_93)">
<path d="M9.7 7.10001V16.7M9.7 16.7L11.4908 15.5062C11.9402 15.2065 12.165 15.0567 12.4081 14.9506C12.6239 14.8563 12.85 14.7879 13.0819 14.7466C13.343 14.7 13.6131 14.7 14.1533 14.7H17.1C17.6601 14.7 17.9401 14.7 18.154 14.591C18.3422 14.4951 18.4951 14.3422 18.591 14.154C18.7 13.9401 18.7 13.6601 18.7 13.1V2.30001C18.7 1.73996 18.7 1.45993 18.591 1.24602C18.4951 1.05786 18.3422 0.904882 18.154 0.809002C17.9401 0.700012 17.6601 0.700012 17.1 0.700012H16.1C13.8598 0.700012 12.7397 0.700012 11.884 1.13598C11.1314 1.51948 10.5195 2.1314 10.136 2.88405C9.7 3.7397 9.7 4.8598 9.7 7.10001C9.7 4.8598 9.7 3.7397 9.264 2.88405C8.8805 2.1314 8.2686 1.51948 7.51596 1.13598C6.66031 0.700012 5.54021 0.700012 3.3 0.700012H2.3C1.73995 0.700012 1.45992 0.700012 1.24601 0.809002C1.05785 0.904882 0.904867 1.05786 0.808987 1.24602C0.699997 1.45993 0.699997 1.73996 0.699997 2.30001V13.1C0.699997 13.6601 0.699997 13.9401 0.808987 14.154C0.904867 14.3422 1.05785 14.4951 1.24601 14.591C1.45992 14.7 1.73995 14.7 2.3 14.7H5.24668C5.78687 14.7 6.05696 14.7 6.31814 14.7466C6.54995 14.7879 6.7761 14.8563 6.99191 14.9506C7.23504 15.0567 7.45977 15.2065 7.9092 15.5062L9.7 16.7Z" stroke="#64748B" stroke-width="1.33333" stroke-linecap="round" stroke-linejoin="round"/>
</g>
<defs>
<clipPath id="clip0_45_93">
<rect width="19.4" height="17.4" fill="white"/>
</clipPath>
</defs>
</svg>
