<svg width="23" height="16" viewBox="0 0 23 16" fill="none" xmlns="http://www.w3.org/2000/svg">
<g clip-path="url(#clip0_33_136)">
<g clip-path="url(#clip1_33_136)">
<path d="M1.2625 0H21.7333C22.4292 0 22.9958 0.566667 22.9958 1.2625V14.7333C22.9958 15.4292 22.4292 15.9958 21.7333 15.9958H1.2625C0.566667 16 0 15.4333 0 14.7375V1.2625C0 0.566667 0.566667 0 1.2625 0Z" fill="#B22234"/>
<path d="M0.00833333 1.1375H22.9958C23 1.17917 23.0042 1.22083 23.0042 1.26667V2.49167H0V1.2625C0 1.22083 0.00416667 1.17917 0.00833333 1.1375ZM23 3.6125V4.9625H0V3.6125H23ZM23 6.0875V7.4375H0V6.0875H23ZM23 8.5625V9.9125H0V8.5625H23ZM23 11.0375V12.3875H0V11.0375H23ZM23 13.5125V14.7333C23 14.775 22.9958 14.8208 22.9917 14.8625H0.00833333C0.00416667 14.825 0 14.7792 0 14.7375V13.5167H23V13.5125Z" fill="white"/>
<path d="M8.66667 0V8.61667H0V1.2625C0 0.566667 0.566667 0 1.2625 0H8.66667Z" fill="#3C3B6E"/>
<path d="M0.512536 1.19166L0.800036 2.0875L0.0417023 1.53333H0.983369L0.220869 2.0875L0.512536 1.19166Z" fill="white"/>
<path d="M0.512536 2.925L0.800036 3.82083L0.0417023 3.26667H0.983369L0.220869 3.82083L0.512536 2.925Z" fill="white"/>
<path d="M0.512536 4.65834L0.800036 5.55417L0.0417023 5H0.983369L0.220869 5.55417L0.512536 4.65834Z" fill="white"/>
<path d="M0.512536 6.39166L0.800036 7.2875L0.0417023 6.73333H0.983369L0.220869 7.2875L0.512536 6.39166Z" fill="white"/>
<path d="M1.52923 0.325001L1.8209 1.22083L1.0584 0.666667H2.00423L1.23756 1.22083L1.52923 0.325001Z" fill="white"/>
<path d="M1.52923 2.05834L1.8209 2.95417L1.0584 2.4H2.00423L1.23756 2.95417L1.52923 2.05834Z" fill="white"/>
<path d="M1.52923 3.79166L1.8209 4.6875L1.0584 4.13333H2.00423L1.23756 4.6875L1.52923 3.79166Z" fill="white"/>
<path d="M1.52923 5.525L1.8209 6.42083L1.0584 5.86667H2.00423L1.23756 6.42083L1.52923 5.525Z" fill="white"/>
<path d="M1.52923 7.25834L1.8209 8.15417L1.0584 7.60001H2.00423L1.23756 8.15417L1.52923 7.25834Z" fill="white"/>
<path d="M2.55003 1.19166L2.8417 2.0875L2.0792 1.53333H3.02087L2.25837 2.0875L2.55003 1.19166Z" fill="white"/>
<path d="M2.55003 2.925L2.8417 3.82083L2.0792 3.26667H3.02087L2.25837 3.82083L2.55003 2.925Z" fill="white"/>
<path d="M2.55003 4.65834L2.8417 5.55417L2.0792 5H3.02087L2.25837 5.55417L2.55003 4.65834Z" fill="white"/>
<path d="M2.55003 6.39166L2.8417 7.2875L2.0792 6.73333H3.02087L2.25837 7.2875L2.55003 6.39166Z" fill="white"/>
<path d="M3.57083 0.325001L3.85833 1.22083L3.1 0.666667H4.04166L3.27917 1.22083L3.57083 0.325001Z" fill="white"/>
<path d="M3.57083 2.05834L3.85833 2.95417L3.1 2.4H4.04166L3.27917 2.95417L3.57083 2.05834Z" fill="white"/>
<path d="M3.57083 3.79166L3.85833 4.6875L3.1 4.13333H4.04166L3.27917 4.6875L3.57083 3.79166Z" fill="white"/>
<path d="M3.57083 5.525L3.85833 6.42083L3.1 5.86667H4.04166L3.27917 6.42083L3.57083 5.525Z" fill="white"/>
<path d="M3.57083 7.25834L3.85833 8.15417L3.1 7.60001H4.04166L3.27917 8.15417L3.57083 7.25834Z" fill="white"/>
<path d="M4.58753 1.19166L4.8792 2.0875L4.1167 1.53333H5.05837L4.29587 2.0875L4.58753 1.19166Z" fill="white"/>
<path d="M4.58753 2.925L4.8792 3.82083L4.1167 3.26667H5.05837L4.29587 3.82083L4.58753 2.925Z" fill="white"/>
<path d="M4.58753 4.65834L4.8792 5.55417L4.1167 5H5.05837L4.29587 5.55417L4.58753 4.65834Z" fill="white"/>
<path d="M4.58753 6.39166L4.8792 7.2875L4.1167 6.73333H5.05837L4.29587 7.2875L4.58753 6.39166Z" fill="white"/>
<path d="M5.60833 0.325001L5.9 1.22083L5.1375 0.666667H6.07916L5.31666 1.22083L5.60833 0.325001Z" fill="white"/>
<path d="M5.60833 2.05834L5.9 2.95417L5.1375 2.4H6.07916L5.31666 2.95417L5.60833 2.05834Z" fill="white"/>
<path d="M5.60833 3.79166L5.9 4.6875L5.1375 4.13333H6.07916L5.31666 4.6875L5.60833 3.79166Z" fill="white"/>
<path d="M5.60833 5.525L5.9 6.42083L5.1375 5.86667H6.07916L5.31666 6.42083L5.60833 5.525Z" fill="white"/>
<path d="M5.60833 7.25834L5.9 8.15417L5.1375 7.60001H6.07916L5.31666 8.15417L5.60833 7.25834Z" fill="white"/>
<path d="M6.62503 1.19166L6.9167 2.0875L6.1542 1.53333H7.09586L6.33753 2.0875L6.62503 1.19166Z" fill="white"/>
<path d="M6.62503 2.925L6.9167 3.82083L6.1542 3.26667H7.09586L6.33753 3.82083L6.62503 2.925Z" fill="white"/>
<path d="M6.62503 4.65834L6.9167 5.55417L6.1542 5H7.09586L6.33753 5.55417L6.62503 4.65834Z" fill="white"/>
<path d="M6.62503 6.39166L6.9167 7.2875L6.1542 6.73333H7.09586L6.33753 7.2875L6.62503 6.39166Z" fill="white"/>
<path d="M7.64584 0.325001L7.9375 1.22083L7.175 0.666667H8.11667L7.35417 1.22083L7.64584 0.325001Z" fill="white"/>
<path d="M7.64584 2.05834L7.9375 2.95417L7.175 2.4H8.11667L7.35417 2.95417L7.64584 2.05834Z" fill="white"/>
<path d="M7.64584 3.79166L7.9375 4.6875L7.175 4.13333H8.11667L7.35417 4.6875L7.64584 3.79166Z" fill="white"/>
<path d="M7.64584 5.525L7.9375 6.42083L7.175 5.86667H8.11667L7.35417 6.42083L7.64584 5.525Z" fill="white"/>
<path d="M7.64584 7.25834L7.9375 8.15417L7.175 7.60001H8.11667L7.35417 8.15417L7.64584 7.25834Z" fill="white"/>
</g>
</g>
<defs>
<clipPath id="clip0_33_136">
<rect width="23" height="16" fill="white"/>
</clipPath>
<clipPath id="clip1_33_136">
<rect width="23" height="16" fill="white"/>
</clipPath>
</defs>
</svg>