<svg width="13" height="18" viewBox="0 0 13 18" fill="none" xmlns="http://www.w3.org/2000/svg">
<g clip-path="url(#clip0_45_175)">
<path d="M6.06122 8.67397C6.06122 7.19704 7.25885 6.00011 8.73543 6.00011H9.12223C9.13277 6.00046 9.14436 5.99976 9.15525 5.99976C10.8121 5.99976 12.1555 7.34354 12.1555 8.99999C12.1555 10.6564 10.8121 11.9999 9.15525 11.9999C9.14436 11.9999 9.13277 11.9995 9.12188 11.9995L8.73543 11.9999C7.25885 11.9999 6.06122 10.8022 6.06122 9.32566V8.67397Z" fill="#00B6FF"/>
<path d="M0 15.0005C0 13.3437 1.34343 11.9999 3.00023 11.9999L6.06125 12.0002V14.9695C6.06125 16.6436 4.68901 18 3.01499 18C1.35854 18 0 16.6569 0 15.0005Z" fill="#24CB71"/>
<path d="M6.06122 0.000351315V6.00012H9.12223C9.13277 5.99977 9.14436 6.00047 9.15525 6.00047C10.8121 6.00047 12.1555 4.65669 12.1555 3.00023C12.1555 1.34343 10.8121 0 9.15525 0C9.14436 0 9.13277 0.000351315 9.12188 0.000351315H6.06122Z" fill="#FF7237"/>
<path d="M0 2.9999C0 4.6567 1.34343 6.00013 3.00023 6.00013H6.06125V0.000366211H2.99988C1.34343 0.000366211 0 1.34345 0 2.9999Z" fill="#FF3737"/>
<path d="M0 8.99999C0 10.6568 1.34343 12.0002 3.00023 12.0002H6.06125V6.00046H2.99988C1.34343 6.00046 0 7.34354 0 8.99999Z" fill="#874FFF"/>
</g>
<defs>
<clipPath id="clip0_45_175">
<rect width="12.1555" height="18" fill="white"/>
</clipPath>
</defs>
</svg>
