<svg width="23" height="16" viewBox="0 0 23 16" fill="none" xmlns="http://www.w3.org/2000/svg">
<g clip-path="url(#clip0_33_117)">
<g clip-path="url(#clip1_33_117)">
<path d="M1.26395 0H21.7355C22.4308 0 22.9996 0.568836 22.9996 1.26408V14.7359C22.9996 15.4312 22.4308 16 21.7355 16H1.26395C0.568836 16 0 15.4312 0 14.7359V1.26408C0 0.568836 0.568836 0 1.26395 0Z" fill="#FFCD00"/>
<path d="M-4.86374e-05 8H22.9996V14.7359C22.9996 15.4312 22.4307 16 21.7355 16H1.2639C0.568787 16 -4.86374e-05 15.4312 -4.86374e-05 14.7359V8Z" fill="#003087"/>
<path d="M-4.86374e-05 12.0001H22.9996V14.7359C22.9996 15.4312 22.4307 16 21.7355 16H1.2639C0.568787 16 -4.86374e-05 15.4312 -4.86374e-05 14.7359V12.0001Z" fill="#C8102E"/>
</g>
</g>
<defs>
<clipPath id="clip0_33_117">
<rect width="22.9996" height="16" fill="white"/>
</clipPath>
<clipPath id="clip1_33_117">
<rect width="22.9996" height="16" fill="white"/>
</clipPath>
</defs>
</svg>
